# 3ds Max Wavefront OBJ Exporter v0.99 - (c)2007 guruware
# File Created: 28.11.2024 03:00:18

mtllib ???? ??.mtl

#
# object Stands_Plane_001
#

v  13.8968 0.0884 3.8005
v  0.7409 33.9480 3.8005
v  -1.0806 33.1221 3.8005
v  0.7409 33.9480 2.8005
v  13.8968 0.0884 2.8005
v  -1.0806 33.1221 2.8005
v  15.7184 0.9142 2.8005
v  15.7184 0.9142 3.8005
v  -16.8432 1.1075 4.0596
v  -16.8432 0.0364 2.5296
v  -16.8432 0.0364 4.0596
v  -16.8432 1.1075 2.5296
v  -12.7783 0.0364 2.5296
v  -12.7783 1.1075 2.5296
v  -12.7783 0.0364 4.0596
v  -12.7783 1.1075 4.0747
v  -16.8432 0.0364 -2.5146
v  -16.8432 1.1075 -4.0446
v  -16.8432 0.0364 -4.0596
v  -12.7783 0.0364 -2.5296
v  -16.8432 1.1075 -2.5146
v  -12.7783 1.1075 -4.0446
v  -12.7783 1.1075 -2.5296
v  -12.7783 0.0364 -4.0596
v  16.8432 0.0364 2.5296
v  16.8432 1.1075 4.0596
v  16.8432 0.0364 4.0596
v  12.7783 1.1075 2.5296
v  16.8432 1.1075 2.5296
v  12.7783 0.0364 4.0596
v  12.7783 0.0364 2.5296
v  12.7783 1.1075 4.0596
v  16.8432 1.1075 -4.0446
v  16.8432 0.0364 -2.5146
v  16.8432 0.0364 -4.0446
v  16.8432 1.1075 -2.5146
v  12.7783 0.0364 -2.5146
v  12.7783 1.1075 -2.5296
v  12.7783 0.0364 -4.0446
v  12.7783 1.1075 -4.0446
v  0.7409 33.9480 -3.7855
v  13.8968 0.0884 -3.7855
v  -1.0806 33.1221 -3.7855
v  13.8968 0.0884 -2.7855
v  0.7409 33.9480 -2.7855
v  -1.0806 33.1221 -2.7855
v  15.7184 0.9142 -2.7855
v  15.7184 0.9142 -3.7855
v  -0.7409 33.9480 3.8005
v  -13.8968 0.0884 3.8005
v  1.0806 33.1221 3.8005
v  -13.8968 0.0884 2.8005
v  -0.7409 33.9480 2.8005
v  1.0806 33.1221 2.8005
v  -15.7183 0.9142 2.8005
v  -15.7183 0.9142 3.8005
v  -13.8968 0.0884 -3.7855
v  -0.7409 33.9480 -3.7855
v  1.0806 33.1221 -3.7855
v  -0.7409 33.9480 -2.7855
v  -13.8968 0.0884 -2.7855
v  1.0806 33.1221 -2.7855
v  -15.7183 0.9142 -3.7855
v  -15.7183 0.9142 -2.7855
# 64 vertices

vn 0.0000 0.0000 1.0000
vn 0.0000 0.0000 -1.0000
vn -0.4129 0.9108 -0.0000
vn -0.9108 -0.4129 -0.0000
vn 0.4129 -0.9108 -0.0000
vn 0.9108 0.4129 -0.0000
vn -1.0000 0.0000 -0.0000
vn 1.0000 0.0000 -0.0000
vn -0.0031 -0.0118 0.9999
vn -0.0006 -0.0023 1.0000
vn 0.0000 -1.0000 -0.0000
vn 0.0000 1.0000 -0.0000
vn 0.0037 0.0000 1.0000
vn 0.0000 0.0141 -0.9999
vn -0.0006 0.0023 1.0000
vn -0.0031 0.0118 0.9999
vn 0.4129 0.9108 -0.0000
vn 0.9108 -0.4129 -0.0000
vn -0.4129 -0.9108 -0.0000
vn -0.9108 0.4129 -0.0000
vn -0.0037 -0.0141 0.9999
vn -0.0037 0.0141 0.9999
# 22 vertex normals

vt 0.0696 1.0000 0.0000
vt 0.0000 0.0000 0.0000
vt 0.0696 0.0000 0.0000
vt 0.4872 1.0000 0.0000
vt 0.5569 0.0000 0.0000
vt 0.5569 1.0000 0.0000
vt 0.8701 0.7227 0.0000
vt 0.9049 0.7729 0.0000
vt 0.8701 0.7729 0.0000
vt 0.6613 0.9597 0.0000
vt 0.6265 0.0000 0.0000
vt 0.6613 0.0000 0.0000
vt 0.8353 0.6724 0.0000
vt 0.8353 0.7227 0.0000
vt 0.6961 0.0000 0.0000
vt 0.7309 0.8437 0.0000
vt 0.6961 0.8437 0.0000
vt 0.9631 0.5327 0.0000
vt 1.0000 0.4905 0.0000
vt 1.0000 0.5327 0.0000
vt 0.9418 0.3362 0.0000
vt 0.9791 0.2241 0.0000
vt 0.9791 0.3362 0.0000
vt 0.9049 0.7653 0.0000
vt 0.9418 0.7231 0.0000
vt 0.9418 0.7653 0.0000
vt 0.9631 0.6724 0.0000
vt 0.9258 0.5604 0.0000
vt 0.9631 0.5604 0.0000
vt 0.8885 0.5604 0.0000
vt 0.8353 0.5604 0.0000
vt 0.8891 0.0000 0.0000
vt 0.8358 0.1121 0.0000
vt 0.8353 0.0000 0.0000
vt 0.9787 0.3788 0.0000
vt 0.9418 0.3366 0.0000
vt 0.9787 0.3362 0.0000
vt 0.9263 0.2241 0.0000
vt 0.8891 0.1121 0.0000
vt 0.9263 0.1121 0.0000
vt 0.9980 0.1121 0.0000
vt 0.9611 0.1538 0.0000
vt 0.9611 0.1121 0.0000
vt 0.9258 0.4483 0.0000
vt 0.8885 0.4483 0.0000
vt 0.8353 0.2241 0.0000
vt 0.8885 0.1121 0.0000
vt 0.8891 0.2241 0.0000
vt 0.8885 0.3362 0.0000
vt 0.9418 0.7227 0.0000
vt 0.9787 0.7648 0.0000
vt 0.9418 0.7648 0.0000
vt 0.9636 0.0000 0.0000
vt 0.9263 0.0000 0.0000
vt 0.9611 0.1543 0.0000
vt 0.9980 0.1964 0.0000
vt 0.9611 0.1964 0.0000
vt 0.8353 0.4483 0.0000
vt 0.8353 0.3362 0.0000
vt 0.9418 0.4210 0.0000
vt 0.9787 0.4210 0.0000
vt 0.8885 0.6724 0.0000
vt 0.9258 0.6724 0.0000
vt 0.9631 0.4901 0.0000
vt 1.0000 0.4483 0.0000
vt 0.9631 0.4483 0.0000
vt 0.9413 0.3362 0.0000
vt 0.2784 1.0000 0.0000
vt 0.3480 0.0000 0.0000
vt 0.3480 1.0000 0.0000
vt 0.1392 1.0000 0.0000
vt 0.1392 0.0000 0.0000
vt 0.8353 0.7729 0.0000
vt 0.9049 0.6724 0.0000
vt 0.9049 0.7227 0.0000
vt 0.7657 0.0000 0.0000
vt 0.7657 0.8437 0.0000
vt 0.2088 1.0000 0.0000
vt 0.2784 0.0000 0.0000
vt 0.4176 1.0000 0.0000
vt 0.9397 0.7227 0.0000
vt 0.9745 0.6724 0.0000
vt 0.9745 0.7227 0.0000
vt 0.5917 0.9597 0.0000
vt 0.5917 0.0000 0.0000
vt 0.9397 0.6724 0.0000
vt 0.8005 0.0000 0.0000
vt 0.8005 0.8437 0.0000
vt 0.4176 0.0000 0.0000
vt 0.2088 0.0000 0.0000
vt 0.9263 0.1623 0.0000
vt 0.9611 0.2125 0.0000
vt 0.9263 0.2125 0.0000
vt 0.9611 0.1623 0.0000
vt 0.8353 0.8437 0.0000
vt 0.0000 1.0000 0.0000
vt 0.4872 0.0000 0.0000
vt 0.6265 0.9597 0.0000
vt 0.8701 0.6724 0.0000
vt 0.7309 0.0000 0.0000
vt 0.9631 0.4905 0.0000
vt 0.9418 0.2241 0.0000
vt 0.9418 0.3788 0.0000
vt 0.9980 0.1543 0.0000
vt 0.8353 0.1121 0.0000
vt 0.9787 0.7227 0.0000
vt 0.9636 0.1121 0.0000
vt 0.8885 0.2241 0.0000
vt 0.9418 0.4483 0.0000
vt 0.6961 0.9597 0.0000
vt 0.5569 0.9597 0.0000
# 111 texture coords

o Stands_Plane_001
g Stands_Plane_001
usemtl FerrisWheel_Stands_mat_001
s 1
f 1/1/1 2/2/1 3/3/1 
f 4/4/2 5/5/2 6/6/2 
f 2/7/3 6/8/3 3/9/3 
f 3/10/4 5/11/4 1/12/4 
f 1/13/5 7/7/5 8/14/5 
f 8/15/6 4/16/6 2/17/6 
f 9/18/7 10/19/7 11/20/7 
f 12/21/2 13/22/2 10/23/2 
f 14/24/8 15/25/8 13/26/8 
f 15/27/9 9/28/10 11/29/1 
f 10/30/11 15/13/11 11/31/11 
f 14/32/12 9/33/12 16/34/12 
f 17/35/7 18/36/7 19/37/7 
f 20/38/13 21/39/13 17/40/13 
f 20/41/8 22/42/8 23/43/8 
f 24/44/14 18/30/14 22/45/14 
f 19/46/11 20/47/11 17/48/11 
f 23/48/12 18/21/12 21/49/12 
f 25/50/8 26/51/8 27/52/8 
f 25/53/2 28/40/2 29/54/2 
f 30/55/7 28/56/7 31/57/7 
f 27/40/1 32/32/1 30/54/1 
f 27/49/11 31/58/11 25/59/11 
f 28/46/12 26/49/12 29/59/12 
f 33/60/8 34/35/8 35/61/8 
f 36/62/15 37/28/16 34/63/1 
f 38/64/7 39/65/7 37/19/7 
f 40/28/2 35/66/2 39/29/2 
f 38/67/12 33/45/12 40/49/12 
f 41/68/2 42/69/2 43/70/2 
f 44/71/1 45/3/1 46/72/1 
f 46/73/3 41/7/3 43/9/3 
f 44/15/4 43/10/4 42/12/4 
f 47/7/5 42/74/5 48/75/5 
f 45/16/6 48/76/6 41/77/6 
f 37/58/11 35/30/11 34/31/11 
f 49/78/1 50/79/1 51/68/1 
f 52/69/2 53/80/2 54/70/2 
f 54/81/17 49/82/17 51/83/17 
f 52/11/18 51/84/18 50/85/18 
f 55/75/19 50/86/19 56/81/19 
f 53/77/20 56/87/20 49/88/20 
f 57/89/2 58/4/2 59/80/2 
f 60/90/1 61/71/1 62/72/1 
f 58/91/17 62/92/17 59/93/17 
f 59/84/18 61/5/18 57/85/18 
f 63/91/19 61/43/19 64/94/19 
f 63/95/20 60/87/20 58/34/20 
f 1/1/1 8/96/1 2/2/1 
f 4/4/2 7/97/2 5/5/2 
f 2/7/3 4/75/3 6/8/3 
f 3/10/4 6/98/4 5/11/4 
f 1/13/5 5/99/5 7/7/5 
f 8/15/6 7/100/6 4/16/6 
f 9/18/7 12/101/7 10/19/7 
f 12/21/2 14/102/2 13/22/2 
f 14/24/8 16/75/8 15/25/8 
f 15/27/9 16/63/21 9/28/10 
f 10/30/11 13/62/11 15/13/11 
f 14/32/12 12/39/12 9/33/12 
f 17/35/7 21/103/7 18/36/7 
f 20/38/13 23/48/13 21/39/13 
f 20/41/8 24/104/8 22/42/8 
f 24/44/14 19/28/14 18/30/14 
f 19/46/11 24/105/11 20/47/11 
f 23/48/12 22/102/12 18/21/12 
f 25/50/8 29/106/8 26/51/8 
f 25/53/2 31/107/2 28/40/2 
f 30/55/7 32/104/7 28/56/7 
f 27/40/1 26/39/1 32/32/1 
f 27/49/11 30/45/11 31/58/11 
f 28/46/12 32/108/12 26/49/12 
f 33/60/8 36/103/8 34/35/8 
f 36/62/15 38/30/22 37/28/16 
f 38/64/7 40/66/7 39/65/7 
f 40/28/2 33/44/2 35/66/2 
f 38/67/12 36/109/12 33/45/12 
f 41/68/2 48/79/2 42/69/2 
f 44/71/1 47/1/1 45/3/1 
f 46/73/3 45/14/3 41/7/3 
f 44/15/4 46/110/4 43/10/4 
f 47/7/5 44/99/5 42/74/5 
f 45/16/6 47/100/6 48/76/6 
f 37/58/11 39/45/11 35/30/11 
f 49/78/1 56/90/1 50/79/1 
f 52/69/2 55/89/2 53/80/2 
f 54/81/17 53/86/17 49/82/17 
f 52/11/18 54/98/18 51/84/18 
f 55/75/19 52/74/19 50/86/19 
f 53/77/20 55/76/20 56/87/20 
f 57/89/2 63/97/2 58/4/2 
f 60/90/1 64/78/1 61/71/1 
f 58/91/17 60/94/17 62/92/17 
f 59/84/18 62/111/18 61/5/18 
f 63/91/19 57/40/19 61/43/19 
f 63/95/20 64/88/20 60/87/20 
# 96 faces

